<svg width="166" height="98" viewBox="0 0 166 98" fill="none" xmlns="http://www.w3.org/2000/svg">
<path d="M18.4023 9V1.8252L122.043 9H18.4023Z" fill="#C50D0D" stroke="#1E1E1E" stroke-width="1.76171"/>
<rect x="8.8086" y="9.00001" width="147.426" height="79.0417" fill="#F5F5F5"/>
<rect x="8.8086" y="9.00001" width="147.426" height="79.0417" stroke="#1E1E1E" stroke-width="1.76171"/>
<path d="M47.3213 42.521L39.6245 21.5567H43.4879L49.5076 38.8373L55.6172 21.5567H59.4207L51.6939 42.521H47.3213ZM60.8976 42.521V27.4267H64.4915V42.521H60.8976ZM62.6945 25.0308C62.0357 25.0308 61.4866 24.8311 61.0473 24.4318C60.6281 24.0125 60.4184 23.5034 60.4184 22.9044C60.4184 22.2855 60.6281 21.7863 61.0473 21.4069C61.4866 21.0076 62.0357 20.808 62.6945 20.808C63.3534 20.808 63.8925 21.0076 64.3118 21.4069C64.751 21.7863 64.9707 22.2855 64.9707 22.9044C64.9707 23.5034 64.751 24.0125 64.3118 24.4318C63.8925 24.8311 63.3534 25.0308 62.6945 25.0308ZM73.4664 42.8804C72.1286 42.8804 70.9606 42.6707 69.9623 42.2515C68.984 41.8122 68.2053 41.2132 67.6263 40.4545C67.0673 39.6758 66.7378 38.7874 66.638 37.7891H70.2319C70.3317 38.2083 70.5114 38.5977 70.7709 38.9571C71.0305 39.2965 71.3799 39.566 71.8192 39.7657C72.2784 39.9653 72.8175 40.0652 73.4364 40.0652C74.0354 40.0652 74.5246 39.9853 74.9039 39.8256C75.2833 39.6459 75.5628 39.4163 75.7425 39.1368C75.9222 38.8572 76.012 38.5577 76.012 38.2383C76.012 37.7591 75.8822 37.3897 75.6227 37.1302C75.3631 36.8706 74.9838 36.671 74.4846 36.5312C74.0054 36.3715 73.4264 36.2217 72.7476 36.082C72.0288 35.9422 71.33 35.7725 70.6512 35.5728C69.9923 35.3532 69.3933 35.0837 68.8542 34.7642C68.3351 34.4447 67.9158 34.0354 67.5964 33.5363C67.2969 33.0371 67.1471 32.4282 67.1471 31.7094C67.1471 30.8309 67.3767 30.0422 67.8359 29.3434C68.3151 28.6446 68.994 28.0956 69.8725 27.6962C70.7709 27.277 71.8391 27.0673 73.077 27.0673C74.834 27.0673 76.2317 27.4766 77.2699 28.2952C78.3281 29.0939 78.947 30.2219 79.1267 31.6795H75.7125C75.6127 31.1204 75.3332 30.6911 74.874 30.3916C74.4147 30.0722 73.8058 29.9125 73.0471 29.9125C72.2684 29.9125 71.6694 30.0622 71.2501 30.3617C70.8508 30.6412 70.6512 31.0206 70.6512 31.4998C70.6512 31.8192 70.7709 32.0987 71.0105 32.3383C71.2701 32.5779 71.6395 32.7876 72.1187 32.9673C72.5978 33.127 73.1868 33.2867 73.8856 33.4464C75.0037 33.6661 75.9921 33.9256 76.8506 34.2251C77.7091 34.5246 78.388 34.9639 78.8871 35.5429C79.3863 36.1219 79.6359 36.9405 79.6359 37.9987C79.6558 38.9571 79.4062 39.8056 78.8871 40.5444C78.388 41.2831 77.6792 41.8621 76.7607 42.2814C75.8423 42.6807 74.7442 42.8804 73.4664 42.8804ZM82.0748 42.521V27.4267H85.6687V42.521H82.0748ZM83.8718 25.0308C83.2129 25.0308 82.6638 24.8311 82.2246 24.4318C81.8053 24.0125 81.5956 23.5034 81.5956 22.9044C81.5956 22.2855 81.8053 21.7863 82.2246 21.4069C82.6638 21.0076 83.2129 20.808 83.8718 20.808C84.5306 20.808 85.0697 21.0076 85.489 21.4069C85.9283 21.7863 86.1479 22.2855 86.1479 22.9044C86.1479 23.5034 85.9283 24.0125 85.489 24.4318C85.0697 24.8311 84.5306 25.0308 83.8718 25.0308ZM95.1827 42.521C94.1644 42.521 93.2759 42.3613 92.5172 42.0418C91.7785 41.7224 91.1994 41.1933 90.7802 40.4545C90.3609 39.7158 90.1512 38.7175 90.1512 37.4596V30.4515H87.5756V27.4267H90.1512L90.5705 23.4435H93.7451V27.4267H97.8481V30.4515H93.7451V37.4596C93.7451 38.2183 93.9048 38.7474 94.2243 39.0469C94.5637 39.3264 95.1228 39.4662 95.9014 39.4662H97.7583V42.521H95.1827ZM105.063 42.8804C103.825 42.8804 102.797 42.6707 101.978 42.2515C101.159 41.8322 100.55 41.2731 100.151 40.5743C99.7518 39.8755 99.5522 39.1168 99.5522 38.2982C99.5522 37.3398 99.7918 36.5112 100.271 35.8124C100.77 35.1136 101.499 34.5745 102.457 34.1952C103.416 33.7959 104.594 33.5962 105.991 33.5962H109.795C109.795 32.7976 109.685 32.1387 109.465 31.6196C109.246 31.0805 108.906 30.6812 108.447 30.4216C107.988 30.162 107.399 30.0323 106.68 30.0323C105.861 30.0323 105.163 30.2219 104.584 30.6013C104.005 30.9607 103.645 31.5197 103.505 32.2784H99.9715C100.091 31.2003 100.451 30.2818 101.05 29.5231C101.649 28.7445 102.437 28.1455 103.416 27.7262C104.414 27.2869 105.502 27.0673 106.68 27.0673C108.098 27.0673 109.306 27.3169 110.304 27.816C111.302 28.2952 112.061 28.994 112.58 29.9125C113.119 30.8109 113.389 31.8991 113.389 33.1769V42.521H110.334L109.974 40.0951C109.775 40.4944 109.515 40.8638 109.196 41.2032C108.896 41.5427 108.547 41.8422 108.148 42.1017C107.748 42.3413 107.289 42.531 106.77 42.6707C106.271 42.8105 105.702 42.8804 105.063 42.8804ZM105.871 40.0352C106.45 40.0352 106.96 39.9354 107.399 39.7357C107.858 39.5161 108.247 39.2166 108.567 38.8373C108.906 38.4379 109.166 37.9987 109.345 37.5195C109.525 37.0403 109.645 36.5312 109.705 35.9921V35.9322H106.381C105.682 35.9322 105.103 36.0221 104.644 36.2018C104.184 36.3815 103.855 36.631 103.655 36.9505C103.456 37.25 103.356 37.6094 103.356 38.0286C103.356 38.4479 103.456 38.8073 103.655 39.1068C103.855 39.4063 104.144 39.6359 104.524 39.7956C104.903 39.9554 105.352 40.0352 105.871 40.0352ZM116.031 42.521V27.4267H119.235L119.565 30.2419C119.924 29.583 120.373 29.024 120.912 28.5648C121.451 28.0856 122.08 27.7162 122.799 27.4566C123.538 27.1971 124.347 27.0673 125.225 27.0673V30.8708H123.967C123.368 30.8708 122.799 30.9507 122.26 31.1104C121.721 31.2502 121.252 31.4898 120.852 31.8292C120.473 32.1487 120.174 32.5979 119.954 33.1769C119.734 33.736 119.625 34.4447 119.625 35.3033V42.521H116.031ZM24.2491 74.521V53.5567H28.5019L35.2105 67.0936L41.8592 53.5567H46.1419V74.521H42.548V59.7262L36.6181 71.586H33.8029L27.843 59.7561V74.521H24.2491ZM56.1462 74.8804C54.6488 74.8804 53.331 74.5609 52.193 73.922C51.0549 73.2631 50.1664 72.3447 49.5275 71.1667C48.8886 69.9887 48.5691 68.631 48.5691 67.0936C48.5691 65.4964 48.8786 64.0987 49.4976 62.9008C50.1365 61.7028 51.025 60.7644 52.163 60.0856C53.3211 59.4067 54.6588 59.0673 56.1762 59.0673C57.6537 59.0673 58.9415 59.3967 60.0396 60.0556C61.1377 60.7145 61.9863 61.603 62.5853 62.7211C63.1843 63.8192 63.4837 65.0571 63.4837 66.4348C63.4837 66.6344 63.4837 66.8541 63.4837 67.0936C63.4837 67.3332 63.4638 67.5828 63.4238 67.8424H51.1448V65.5363H59.8599C59.82 64.4382 59.4506 63.5796 58.7518 62.9607C58.053 62.3218 57.1845 62.0023 56.1462 62.0023C55.4075 62.0023 54.7287 62.172 54.1097 62.5114C53.4908 62.8509 53.0016 63.36 52.6422 64.0388C52.2828 64.6977 52.1031 65.5363 52.1031 66.5546V67.4231C52.1031 68.3615 52.2728 69.1701 52.6123 69.849C52.9716 70.5278 53.4508 71.0469 54.0498 71.4063C54.6688 71.7457 55.3576 71.9154 56.1163 71.9154C56.9549 71.9154 57.6437 71.7357 58.1828 71.3764C58.7418 71.017 59.1511 70.5378 59.4107 69.9388H63.0645C62.7849 70.8772 62.3257 71.7258 61.6868 72.4845C61.0479 73.2232 60.2592 73.8122 59.3208 74.2515C58.3824 74.6707 57.3242 74.8804 56.1462 74.8804ZM65.604 74.521V59.4267H68.8086L69.138 62.2419C69.4974 61.583 69.9466 61.024 70.4857 60.5648C71.0248 60.0856 71.6537 59.7162 72.3725 59.4566C73.1113 59.1971 73.9199 59.0673 74.7984 59.0673V62.8708H73.5405C72.9415 62.8708 72.3725 62.9507 71.8334 63.1104C71.2944 63.2502 70.8252 63.4898 70.4258 63.8292C70.0465 64.1487 69.747 64.5979 69.5274 65.1769C69.3077 65.736 69.1979 66.4447 69.1979 67.3033V74.521H65.604ZM83.1457 74.8804C81.6682 74.8804 80.3405 74.5509 79.1625 73.8921C78.0045 73.2132 77.096 72.2848 76.4372 71.1068C75.7982 69.9088 75.4788 68.5512 75.4788 67.0337C75.4788 65.4564 75.7982 64.0788 76.4372 62.9008C77.096 61.7028 78.0045 60.7644 79.1625 60.0856C80.3405 59.4067 81.6782 59.0673 83.1757 59.0673C85.0525 59.0673 86.6298 59.5665 87.9076 60.5648C89.1855 61.5431 90.0041 62.8908 90.3634 64.6079H86.5899C86.3902 63.8492 85.9709 63.2502 85.332 62.8109C84.7131 62.3717 83.9743 62.1521 83.1158 62.1521C82.377 62.1521 81.6982 62.3417 81.0793 62.7211C80.4803 63.1004 80.0011 63.6495 79.6417 64.3683C79.3023 65.0871 79.1326 65.9556 79.1326 66.9738C79.1326 67.7525 79.2324 68.4413 79.4321 69.0403C79.6317 69.6393 79.9112 70.1484 80.2706 70.5677C80.65 70.967 81.0793 71.2765 81.5584 71.4961C82.0376 71.7158 82.5567 71.8256 83.1158 71.8256C83.6948 71.8256 84.2139 71.7357 84.6731 71.556C85.1523 71.3564 85.5516 71.0669 85.8711 70.6875C86.2105 70.3082 86.4501 69.8589 86.5899 69.3398H90.3634C90.0041 71.017 89.1855 72.3647 87.9076 73.3829C86.6298 74.3812 85.0425 74.8804 83.1457 74.8804ZM97.6621 74.8804C96.4242 74.8804 95.396 74.6707 94.5774 74.2515C93.7588 73.8322 93.1498 73.2731 92.7505 72.5743C92.3512 71.8755 92.1515 71.1168 92.1515 70.2982C92.1515 69.3398 92.3911 68.5112 92.8703 67.8124C93.3694 67.1136 94.0982 66.5745 95.0566 66.1952C96.0149 65.7959 97.1929 65.5962 98.5905 65.5962H102.394C102.394 64.7976 102.284 64.1387 102.065 63.6196C101.845 63.0805 101.506 62.6812 101.046 62.4216C100.587 62.162 99.9981 62.0323 99.2794 62.0323C98.4608 62.0323 97.7619 62.2219 97.1829 62.6013C96.6039 62.9607 96.2445 63.5197 96.1048 64.2784H92.5708C92.6906 63.2003 93.05 62.2818 93.6489 61.5231C94.2479 60.7445 95.0366 60.1455 96.0149 59.7262C97.0132 59.2869 98.1014 59.0673 99.2794 59.0673C100.697 59.0673 101.905 59.3169 102.903 59.816C103.901 60.2952 104.66 60.994 105.179 61.9125C105.718 62.8109 105.988 63.8991 105.988 65.1769V74.521H102.933L102.574 72.0951C102.374 72.4944 102.115 72.8638 101.795 73.2032C101.496 73.5427 101.146 73.8422 100.747 74.1017C100.348 74.3413 99.8883 74.531 99.3692 74.6707C98.8701 74.8105 98.301 74.8804 97.6621 74.8804ZM98.4707 72.0352C99.0498 72.0352 99.5589 71.9354 99.9981 71.7357C100.457 71.5161 100.847 71.2166 101.166 70.8373C101.506 70.4379 101.765 69.9987 101.945 69.5195C102.125 69.0403 102.244 68.5312 102.304 67.9921V67.9322H98.9799C98.2811 67.9322 97.702 68.0221 97.2428 68.2018C96.7836 68.3815 96.4542 68.631 96.2545 68.9505C96.0549 69.25 95.955 69.6094 95.955 70.0286C95.955 70.4479 96.0549 70.8073 96.2545 71.1068C96.4542 71.4063 96.7437 71.6359 97.123 71.7956C97.5024 71.9554 97.9516 72.0352 98.4707 72.0352ZM115.339 74.8804C113.941 74.8804 112.693 74.541 111.595 73.8621C110.497 73.1833 109.638 72.2449 109.019 71.0469C108.42 69.849 108.121 68.4913 108.121 66.9738C108.121 65.4564 108.43 64.1087 109.049 62.9307C109.668 61.7328 110.527 60.7944 111.625 60.1155C112.743 59.4167 114.001 59.0673 115.398 59.0673C116.537 59.0673 117.525 59.2869 118.363 59.7262C119.222 60.1455 119.901 60.7445 120.4 61.5231V52.9577H123.994V74.521H120.759L120.4 72.3347C120.08 72.774 119.691 73.1933 119.232 73.5926C118.773 73.9719 118.224 74.2814 117.585 74.521C116.946 74.7606 116.197 74.8804 115.339 74.8804ZM116.087 71.7657C116.946 71.7657 117.705 71.566 118.363 71.1667C119.022 70.7474 119.531 70.1784 119.891 69.4596C120.25 68.7408 120.43 67.9122 120.43 66.9738C120.43 66.0354 120.25 65.2069 119.891 64.4881C119.531 63.7693 119.022 63.2103 118.363 62.8109C117.705 62.4116 116.946 62.212 116.087 62.212C115.269 62.212 114.53 62.4116 113.871 62.8109C113.212 63.2103 112.693 63.7693 112.314 64.4881C111.954 65.2069 111.775 66.0354 111.775 66.9738C111.775 67.9122 111.954 68.7408 112.314 69.4596C112.693 70.1784 113.212 70.7474 113.871 71.1667C114.53 71.566 115.269 71.7657 116.087 71.7657ZM133.832 74.8804C132.394 74.8804 131.096 74.5509 129.938 73.8921C128.8 73.2132 127.902 72.2848 127.243 71.1068C126.604 69.9088 126.284 68.5412 126.284 67.0038C126.284 65.4265 126.614 64.0488 127.273 62.8708C127.932 61.6729 128.83 60.7445 129.968 60.0856C131.126 59.4067 132.424 59.0673 133.862 59.0673C135.299 59.0673 136.587 59.4067 137.725 60.0856C138.883 60.7445 139.781 61.6629 140.42 62.8409C141.079 64.0189 141.409 65.3965 141.409 66.9738C141.409 68.5512 141.079 69.9288 140.42 71.1068C139.762 72.2848 138.853 73.2132 137.695 73.8921C136.557 74.5509 135.269 74.8804 133.832 74.8804ZM133.832 71.7956C134.55 71.7956 135.199 71.6159 135.778 71.2566C136.377 70.8972 136.856 70.3581 137.216 69.6393C137.575 68.9205 137.755 68.032 137.755 66.9738C137.755 65.9156 137.575 65.0371 137.216 64.3383C136.876 63.6196 136.407 63.0805 135.808 62.7211C135.229 62.3617 134.58 62.182 133.862 62.182C133.163 62.182 132.514 62.3617 131.915 62.7211C131.316 63.0805 130.837 63.6196 130.477 64.3383C130.118 65.0371 129.938 65.9156 129.938 66.9738C129.938 68.032 130.118 68.9205 130.477 69.6393C130.837 70.3581 131.306 70.8972 131.885 71.2566C132.484 71.6159 133.133 71.7956 133.832 71.7956Z" fill="#1E1E1E"/>
<path d="M146.641 88.0415V95.2163L43 88.0415H146.641Z" fill="#C50D0D" stroke="#1E1E1E" stroke-width="1.76171"/>
</svg>
